<svg id="visual" viewBox="0 0 960 540" width="960" height="540" xmlns="http://www.w3.org/2000/svg" xmlns:xlink="http://www.w3.org/1999/xlink" version="1.1"><rect x="0" y="0" width="960" height="540" fill="#e69a82"></rect><path d="M0 116L8.8 119.2C17.7 122.3 35.3 128.7 53.2 125.7C71 122.7 89 110.3 106.8 111.7C124.7 113 142.3 128 160 134.8C177.7 141.7 195.3 140.3 213.2 144C231 147.7 249 156.3 266.8 158.7C284.7 161 302.3 157 320 152.5C337.7 148 355.3 143 373.2 135.2C391 127.3 409 116.7 426.8 112.8C444.7 109 462.3 112 480 118C497.7 124 515.3 133 533.2 134.2C551 135.3 569 128.7 586.8 131.2C604.7 133.7 622.3 145.3 640 141.3C657.7 137.3 675.3 117.7 693.2 117.5C711 117.3 729 136.7 746.8 149.2C764.7 161.7 782.3 167.3 800 158.3C817.7 149.3 835.3 125.7 853.2 118C871 110.3 889 118.7 906.8 119.5C924.7 120.3 942.3 113.7 951.2 110.3L960 107L960 541L951.2 541C942.3 541 924.7 541 906.8 541C889 541 871 541 853.2 541C835.3 541 817.7 541 800 541C782.3 541 764.7 541 746.8 541C729 541 711 541 693.2 541C675.3 541 657.7 541 640 541C622.3 541 604.7 541 586.8 541C569 541 551 541 533.2 541C515.3 541 497.7 541 480 541C462.3 541 444.7 541 426.8 541C409 541 391 541 373.2 541C355.3 541 337.7 541 320 541C302.3 541 284.7 541 266.8 541C249 541 231 541 213.2 541C195.3 541 177.7 541 160 541C142.3 541 124.7 541 106.8 541C89 541 71 541 53.2 541C35.3 541 17.7 541 8.8 541L0 541Z" fill="#165114"></path><path d="M0 204L8.8 199.5C17.7 195 35.3 186 53.2 178.7C71 171.3 89 165.7 106.8 168.5C124.7 171.3 142.3 182.7 160 178.7C177.7 174.7 195.3 155.3 213.2 155.8C231 156.3 249 176.7 266.8 177.5C284.7 178.3 302.3 159.7 320 151.3C337.7 143 355.3 145 373.2 154C391 163 409 179 426.8 176.8C444.7 174.7 462.3 154.3 480 154C497.7 153.7 515.3 173.3 533.2 176.5C551 179.7 569 166.3 586.8 164.8C604.7 163.3 622.3 173.7 640 172.5C657.7 171.3 675.3 158.7 693.2 150.3C711 142 729 138 746.8 143.7C764.7 149.3 782.3 164.7 800 175.5C817.7 186.3 835.3 192.7 853.2 186.7C871 180.7 889 162.3 906.8 157.2C924.7 152 942.3 160 951.2 164L960 168L960 541L951.2 541C942.3 541 924.7 541 906.8 541C889 541 871 541 853.2 541C835.3 541 817.7 541 800 541C782.3 541 764.7 541 746.8 541C729 541 711 541 693.2 541C675.3 541 657.7 541 640 541C622.3 541 604.7 541 586.8 541C569 541 551 541 533.2 541C515.3 541 497.7 541 480 541C462.3 541 444.7 541 426.8 541C409 541 391 541 373.2 541C355.3 541 337.7 541 320 541C302.3 541 284.7 541 266.8 541C249 541 231 541 213.2 541C195.3 541 177.7 541 160 541C142.3 541 124.7 541 106.8 541C89 541 71 541 53.2 541C35.3 541 17.7 541 8.8 541L0 541Z" fill="#245916"></path><path d="M0 188L8.8 188.7C17.7 189.3 35.3 190.7 53.2 189.8C71 189 89 186 106.8 193C124.7 200 142.3 217 160 216.2C177.7 215.3 195.3 196.7 213.2 192.5C231 188.3 249 198.7 266.8 208.2C284.7 217.7 302.3 226.3 320 223C337.7 219.7 355.3 204.3 373.2 203C391 201.7 409 214.3 426.8 218C444.7 221.7 462.3 216.3 480 211.5C497.7 206.7 515.3 202.3 533.2 203.2C551 204 569 210 586.8 216C604.7 222 622.3 228 640 232.3C657.7 236.7 675.3 239.3 693.2 239.7C711 240 729 238 746.8 230.2C764.7 222.3 782.3 208.7 800 203C817.7 197.3 835.3 199.7 853.2 196.8C871 194 889 186 906.8 190.8C924.7 195.7 942.3 213.3 951.2 222.2L960 231L960 541L951.2 541C942.3 541 924.7 541 906.8 541C889 541 871 541 853.2 541C835.3 541 817.7 541 800 541C782.3 541 764.7 541 746.8 541C729 541 711 541 693.2 541C675.3 541 657.7 541 640 541C622.3 541 604.7 541 586.8 541C569 541 551 541 533.2 541C515.3 541 497.7 541 480 541C462.3 541 444.7 541 426.8 541C409 541 391 541 373.2 541C355.3 541 337.7 541 320 541C302.3 541 284.7 541 266.8 541C249 541 231 541 213.2 541C195.3 541 177.7 541 160 541C142.3 541 124.7 541 106.8 541C89 541 71 541 53.2 541C35.3 541 17.7 541 8.8 541L0 541Z" fill="#316118"></path><path d="M0 225L8.8 229.5C17.7 234 35.3 243 53.2 251.5C71 260 89 268 106.8 271.5C124.7 275 142.3 274 160 272C177.7 270 195.3 267 213.2 256.8C231 246.7 249 229.3 266.8 224.2C284.7 219 302.3 226 320 233.7C337.7 241.3 355.3 249.7 373.2 256.7C391 263.7 409 269.3 426.8 261.2C444.7 253 462.3 231 480 229.2C497.7 227.3 515.3 245.7 533.2 249.2C551 252.7 569 241.3 586.8 241.7C604.7 242 622.3 254 640 255.5C657.7 257 675.3 248 693.2 248C711 248 729 257 746.8 254.3C764.7 251.7 782.3 237.3 800 234.5C817.7 231.7 835.3 240.3 853.2 239.8C871 239.3 889 229.7 906.8 229.2C924.7 228.7 942.3 237.3 951.2 241.7L960 246L960 541L951.2 541C942.3 541 924.7 541 906.8 541C889 541 871 541 853.2 541C835.3 541 817.7 541 800 541C782.3 541 764.7 541 746.8 541C729 541 711 541 693.2 541C675.3 541 657.7 541 640 541C622.3 541 604.7 541 586.8 541C569 541 551 541 533.2 541C515.3 541 497.7 541 480 541C462.3 541 444.7 541 426.8 541C409 541 391 541 373.2 541C355.3 541 337.7 541 320 541C302.3 541 284.7 541 266.8 541C249 541 231 541 213.2 541C195.3 541 177.7 541 160 541C142.3 541 124.7 541 106.8 541C89 541 71 541 53.2 541C35.3 541 17.7 541 8.8 541L0 541Z" fill="#3e691a"></path><path d="M0 266L8.8 270.2C17.7 274.3 35.3 282.7 53.2 287.3C71 292 89 293 106.8 295.7C124.7 298.3 142.3 302.7 160 301C177.7 299.3 195.3 291.7 213.2 286.7C231 281.7 249 279.3 266.8 277.2C284.7 275 302.3 273 320 269.5C337.7 266 355.3 261 373.2 264.3C391 267.7 409 279.3 426.8 280C444.7 280.7 462.3 270.3 480 265.8C497.7 261.3 515.3 262.7 533.2 263.7C551 264.7 569 265.3 586.8 267C604.7 268.7 622.3 271.3 640 269.5C657.7 267.7 675.3 261.3 693.2 262C711 262.7 729 270.3 746.8 276.2C764.7 282 782.3 286 800 281.7C817.7 277.3 835.3 264.7 853.2 267.7C871 270.7 889 289.3 906.8 299C924.7 308.7 942.3 309.3 951.2 309.7L960 310L960 541L951.2 541C942.3 541 924.7 541 906.8 541C889 541 871 541 853.2 541C835.3 541 817.7 541 800 541C782.3 541 764.7 541 746.8 541C729 541 711 541 693.2 541C675.3 541 657.7 541 640 541C622.3 541 604.7 541 586.8 541C569 541 551 541 533.2 541C515.3 541 497.7 541 480 541C462.3 541 444.7 541 426.8 541C409 541 391 541 373.2 541C355.3 541 337.7 541 320 541C302.3 541 284.7 541 266.8 541C249 541 231 541 213.2 541C195.3 541 177.7 541 160 541C142.3 541 124.7 541 106.8 541C89 541 71 541 53.2 541C35.3 541 17.7 541 8.8 541L0 541Z" fill="#4b711d"></path><path d="M0 294L8.8 295.5C17.7 297 35.3 300 53.2 305.3C71 310.7 89 318.3 106.8 325.3C124.7 332.3 142.3 338.7 160 335C177.7 331.3 195.3 317.7 213.2 312.8C231 308 249 312 266.8 309.5C284.7 307 302.3 298 320 297.2C337.7 296.3 355.3 303.7 373.2 311.3C391 319 409 327 426.8 330.8C444.7 334.7 462.3 334.3 480 332.2C497.7 330 515.3 326 533.2 318.8C551 311.7 569 301.3 586.8 297.7C604.7 294 622.3 297 640 304.7C657.7 312.3 675.3 324.7 693.2 330.3C711 336 729 335 746.8 329.8C764.7 324.7 782.3 315.3 800 315C817.7 314.7 835.3 323.3 853.2 327C871 330.7 889 329.3 906.8 323.5C924.7 317.7 942.3 307.3 951.2 302.2L960 297L960 541L951.2 541C942.3 541 924.7 541 906.8 541C889 541 871 541 853.2 541C835.3 541 817.7 541 800 541C782.3 541 764.7 541 746.8 541C729 541 711 541 693.2 541C675.3 541 657.7 541 640 541C622.3 541 604.7 541 586.8 541C569 541 551 541 533.2 541C515.3 541 497.7 541 480 541C462.3 541 444.7 541 426.8 541C409 541 391 541 373.2 541C355.3 541 337.7 541 320 541C302.3 541 284.7 541 266.8 541C249 541 231 541 213.2 541C195.3 541 177.7 541 160 541C142.3 541 124.7 541 106.8 541C89 541 71 541 53.2 541C35.3 541 17.7 541 8.8 541L0 541Z" fill="#58791f"></path><path d="M0 375L8.8 370.2C17.7 365.3 35.3 355.7 53.2 353.8C71 352 89 358 106.8 360.8C124.7 363.7 142.3 363.3 160 363C177.7 362.7 195.3 362.3 213.2 360.8C231 359.3 249 356.7 266.8 359.3C284.7 362 302.3 370 320 371.8C337.7 373.7 355.3 369.3 373.2 367C391 364.7 409 364.3 426.8 365.3C444.7 366.3 462.3 368.7 480 368.3C497.7 368 515.3 365 533.2 361.7C551 358.3 569 354.7 586.8 353.3C604.7 352 622.3 353 640 349.8C657.7 346.7 675.3 339.3 693.2 341.7C711 344 729 356 746.8 363.5C764.7 371 782.3 374 800 370.7C817.7 367.3 835.3 357.7 853.2 353.8C871 350 889 352 906.8 355.3C924.7 358.7 942.3 363.3 951.2 365.7L960 368L960 541L951.2 541C942.3 541 924.7 541 906.8 541C889 541 871 541 853.2 541C835.3 541 817.7 541 800 541C782.3 541 764.7 541 746.8 541C729 541 711 541 693.2 541C675.3 541 657.7 541 640 541C622.3 541 604.7 541 586.8 541C569 541 551 541 533.2 541C515.3 541 497.7 541 480 541C462.3 541 444.7 541 426.8 541C409 541 391 541 373.2 541C355.3 541 337.7 541 320 541C302.3 541 284.7 541 266.8 541C249 541 231 541 213.2 541C195.3 541 177.7 541 160 541C142.3 541 124.7 541 106.8 541C89 541 71 541 53.2 541C35.3 541 17.7 541 8.8 541L0 541Z" fill="#668121"></path><path d="M0 388L8.8 384.2C17.7 380.3 35.3 372.7 53.2 371.7C71 370.7 89 376.3 106.8 378.7C124.7 381 142.3 380 160 380C177.7 380 195.3 381 213.2 380.3C231 379.7 249 377.3 266.8 375.2C284.7 373 302.3 371 320 370C337.7 369 355.3 369 373.2 376.7C391 384.3 409 399.7 426.8 403.7C444.7 407.7 462.3 400.3 480 394C497.7 387.7 515.3 382.3 533.2 381.3C551 380.3 569 383.7 586.8 388.2C604.7 392.7 622.3 398.3 640 398.3C657.7 398.3 675.3 392.7 693.2 388.2C711 383.7 729 380.3 746.8 383.5C764.7 386.7 782.3 396.3 800 396.7C817.7 397 835.3 388 853.2 385.7C871 383.3 889 387.7 906.8 392.5C924.7 397.3 942.3 402.7 951.2 405.3L960 408L960 541L951.2 541C942.3 541 924.7 541 906.8 541C889 541 871 541 853.2 541C835.3 541 817.7 541 800 541C782.3 541 764.7 541 746.8 541C729 541 711 541 693.2 541C675.3 541 657.7 541 640 541C622.3 541 604.7 541 586.8 541C569 541 551 541 533.2 541C515.3 541 497.7 541 480 541C462.3 541 444.7 541 426.8 541C409 541 391 541 373.2 541C355.3 541 337.7 541 320 541C302.3 541 284.7 541 266.8 541C249 541 231 541 213.2 541C195.3 541 177.7 541 160 541C142.3 541 124.7 541 106.8 541C89 541 71 541 53.2 541C35.3 541 17.7 541 8.8 541L0 541Z" fill="#738824"></path><path d="M0 431L8.8 432.3C17.7 433.7 35.3 436.3 53.2 438.8C71 441.3 89 443.7 106.8 444C124.7 444.3 142.3 442.7 160 439.3C177.7 436 195.3 431 213.2 426.7C231 422.3 249 418.7 266.8 417.5C284.7 416.3 302.3 417.7 320 416.5C337.7 415.3 355.3 411.7 373.2 413.2C391 414.7 409 421.3 426.8 424.5C444.7 427.7 462.3 427.3 480 424.3C497.7 421.3 515.3 415.7 533.2 417.7C551 419.7 569 429.3 586.8 435.7C604.7 442 622.3 445 640 439.8C657.7 434.7 675.3 421.3 693.2 416.8C711 412.3 729 416.7 746.8 420.8C764.7 425 782.3 429 800 426C817.7 423 835.3 413 853.2 409.3C871 405.7 889 408.3 906.8 414C924.7 419.7 942.3 428.3 951.2 432.7L960 437L960 541L951.2 541C942.3 541 924.7 541 906.8 541C889 541 871 541 853.2 541C835.3 541 817.7 541 800 541C782.3 541 764.7 541 746.8 541C729 541 711 541 693.2 541C675.3 541 657.7 541 640 541C622.3 541 604.7 541 586.8 541C569 541 551 541 533.2 541C515.3 541 497.7 541 480 541C462.3 541 444.7 541 426.8 541C409 541 391 541 373.2 541C355.3 541 337.7 541 320 541C302.3 541 284.7 541 266.8 541C249 541 231 541 213.2 541C195.3 541 177.7 541 160 541C142.3 541 124.7 541 106.8 541C89 541 71 541 53.2 541C35.3 541 17.7 541 8.8 541L0 541Z" fill="#829027"></path><path d="M0 448L8.8 451.3C17.7 454.7 35.3 461.3 53.2 460.3C71 459.3 89 450.7 106.8 448.8C124.7 447 142.3 452 160 456.3C177.7 460.7 195.3 464.3 213.2 468.2C231 472 249 476 266.8 473.8C284.7 471.7 302.3 463.3 320 457.3C337.7 451.3 355.3 447.7 373.2 452.5C391 457.3 409 470.7 426.8 471C444.7 471.3 462.3 458.7 480 456.7C497.7 454.7 515.3 463.3 533.2 463.3C551 463.3 569 454.7 586.8 455.3C604.7 456 622.3 466 640 465.3C657.7 464.7 675.3 453.3 693.2 453.8C711 454.3 729 466.7 746.8 473.5C764.7 480.3 782.3 481.7 800 475.8C817.7 470 835.3 457 853.2 456C871 455 889 466 906.8 467.3C924.7 468.7 942.3 460.3 951.2 456.2L960 452L960 541L951.2 541C942.3 541 924.7 541 906.8 541C889 541 871 541 853.2 541C835.3 541 817.7 541 800 541C782.3 541 764.7 541 746.8 541C729 541 711 541 693.2 541C675.3 541 657.7 541 640 541C622.3 541 604.7 541 586.8 541C569 541 551 541 533.2 541C515.3 541 497.7 541 480 541C462.3 541 444.7 541 426.8 541C409 541 391 541 373.2 541C355.3 541 337.7 541 320 541C302.3 541 284.7 541 266.8 541C249 541 231 541 213.2 541C195.3 541 177.7 541 160 541C142.3 541 124.7 541 106.8 541C89 541 71 541 53.2 541C35.3 541 17.7 541 8.8 541L0 541Z" fill="#90982b"></path><path d="M0 487L8.8 490.7C17.7 494.3 35.3 501.7 53.2 501.8C71 502 89 495 106.8 492.7C124.7 490.3 142.3 492.7 160 497.7C177.7 502.7 195.3 510.3 213.2 507.7C231 505 249 492 266.8 486C284.7 480 302.3 481 320 483.7C337.7 486.3 355.3 490.7 373.2 494.5C391 498.3 409 501.7 426.8 501.3C444.7 501 462.3 497 480 497.2C497.7 497.3 515.3 501.7 533.2 501.2C551 500.7 569 495.3 586.8 495.2C604.7 495 622.3 500 640 501.2C657.7 502.3 675.3 499.7 693.2 497.2C711 494.7 729 492.3 746.8 489.3C764.7 486.3 782.3 482.7 800 485.5C817.7 488.3 835.3 497.7 853.2 498.8C871 500 889 493 906.8 494.5C924.7 496 942.3 506 951.2 511L960 516L960 541L951.2 541C942.3 541 924.7 541 906.8 541C889 541 871 541 853.2 541C835.3 541 817.7 541 800 541C782.3 541 764.7 541 746.8 541C729 541 711 541 693.2 541C675.3 541 657.7 541 640 541C622.3 541 604.7 541 586.8 541C569 541 551 541 533.2 541C515.3 541 497.7 541 480 541C462.3 541 444.7 541 426.8 541C409 541 391 541 373.2 541C355.3 541 337.7 541 320 541C302.3 541 284.7 541 266.8 541C249 541 231 541 213.2 541C195.3 541 177.7 541 160 541C142.3 541 124.7 541 106.8 541C89 541 71 541 53.2 541C35.3 541 17.7 541 8.8 541L0 541Z" fill="#9f9f2f"></path></svg>